<svg width="60" height="60" viewBox="0 0 60 60" fill="none" xmlns="http://www.w3.org/2000/svg">
  <defs>
    <linearGradient id="sp-gradient" x1="0" y1="0" x2="1" y2="1">
      <stop offset="0%" stop-color="#FF9A9E"/>
      <stop offset="50%" stop-color="#F770FF"/>
      <stop offset="100%" stop-color="#6C63FF"/>
    </linearGradient>

    <filter id="sp-shadow" x="-20%" y="-20%" width="140%" height="140%">
      <feDropShadow dx="0" dy="6" stdDeviation="8" flood-color="rgba(15,23,42,0.28)"/>
    </filter>
  </defs>

  <!-- Gradient rounded square -->
  <g filter="url(#sp-shadow)">
    <rect x="8" y="8" width="44" height="44" rx="12" fill="url(#sp-gradient)"/>
  </g>

  <!-- Stylized "S" symbol -->
  <path
    d="M28 21C31 18.5 36 18.5 39 21C40.6 22.3 41.5 24.1 41.5 26H38.8C38.8 24.9 38.3 24 37.4 23.3C35.7 22 32.9 22 31.2 23.3C30.3 24 29.8 24.9 29.8 26C29.8 27.1 30.3 28 31.2 28.7C32.9 30 35.7 30 37.4 31.3C39.1 32.6 40 34.4 40 36.2C40 38 39.1 39.8 37.4 41.1C34.7 43.3 30.3 43.3 27.6 41.1C26 39.8 25.1 38 25.1 36.2H27.9C27.9 37.3 28.4 38.2 29.3 38.9C31 40.2 33.8 40.2 35.5 38.9C36.4 38.2 36.9 37.3 36.9 36.2C36.9 35.1 36.4 34.2 35.5 33.5C33.8 32.2 31 32.2 29.3 30.9C27.6 29.6 26.7 27.8 26.7 26C26.7 24.2 27.6 22.4 29.3 21.1Z"
    fill="white"
    fill-opacity="0.96"
  />
</svg>
